<svg aria-hidden="true" xmlns="http://www.w3.org/2000/svg">
    <symbol id="iconVue" viewBox="0 0 128 128">
        <path d="M5.33887 16H26.6722L64.0055 80L101.339 16H122.672L64.0055 117.333L5.33887 16ZM51.5629 16L64.0002 37.3333L76.4429 16H97.9629L64.0002 74.6667L30.0429 16H51.5629Z" fill="currentColor" />
    </symbol>
    <symbol id="iconBootstrap" viewBox="0 0 128 128">
        <path d="M14.4613 8.10132C11.0373 8.10132 8.50667 11.0987 8.62133 14.3467C8.728 17.4693 8.58667 21.5147 7.568 24.8107C6.54667 28.1173 4.82133 30.2133 2 30.4827V33.5173C4.82133 33.7867 6.54667 35.8827 7.568 39.1893C8.58667 42.488 8.728 46.5307 8.61867 49.6533C8.50667 52.9013 11.0373 55.8987 14.464 55.8987H49.5413C52.9653 55.8987 55.4987 52.9013 55.3867 49.6533C55.2773 46.5307 55.4187 42.488 56.4347 39.1893C57.4587 35.8827 59.1813 33.7867 62 33.5173V30.4827C59.1787 30.2133 57.4587 28.1173 56.4347 24.8107C55.4187 21.5147 55.2773 17.4693 55.3867 14.3467C55.4987 11.0987 52.9653 8.10132 49.5413 8.10132H14.4613ZM42.6773 37.5227C42.6773 41.9973 39.3413 44.712 33.8027 44.712H24.3733C24.2396 44.7127 24.107 44.6869 23.9833 44.6361C23.8596 44.5854 23.7471 44.5106 23.6524 44.4161C23.5577 44.3217 23.4826 44.2094 23.4315 44.0858C23.3804 43.9622 23.3543 43.8297 23.3547 43.696V20.304C23.3547 20.1705 23.3811 20.0383 23.4323 19.915C23.4836 19.7917 23.5587 19.6797 23.6533 19.5856C23.748 19.4914 23.8604 19.4169 23.9839 19.3663C24.1075 19.3156 24.2398 19.2899 24.3733 19.2907H33.7467C38.3653 19.2907 41.3973 21.7893 41.3973 25.632C41.3973 28.3253 39.3573 30.7413 36.76 31.1627V31.304C40.296 31.6907 42.6773 34.1413 42.6773 37.5227ZM32.7733 22.512H27.3973V30.1067H31.9253C35.4267 30.1067 37.3547 28.696 37.3547 26.176C37.3547 23.816 35.696 22.512 32.7733 22.512ZM27.3973 33.1173V41.488H32.9707C36.616 41.488 38.544 40.024 38.544 37.2747C38.544 34.528 36.5627 33.1173 32.736 33.1173H27.3973Z" fill="currentColor" />
    </symbol>
    <symbol id="iconJavaScript" viewBox="0 0 128 128">
        <path d="M16 8C13.8783 8 11.8434 8.84285 10.3431 10.3431C8.84285 11.8434 8 13.8783 8 16V48C8 50.1217 8.84285 52.1566 10.3431 53.6569C11.8434 55.1571 13.8783 56 16 56H48C50.1217 56 52.1566 55.1571 53.6569 53.6569C55.1571 52.1566 56 50.1217 56 48V16C56 13.8783 55.1571 11.8434 53.6569 10.3431C52.1566 8.84285 50.1217 8 48 8H16ZM35.5573 42.8133C37.4773 44.36 39.3938 45.1227 41.3067 45.1013C42.48 45.1013 43.3796 44.8862 44.0053 44.456C44.2967 44.2669 44.5338 44.0051 44.6932 43.6965C44.8527 43.3879 44.929 43.0431 44.9147 42.696C44.9187 42.3174 44.8396 41.9426 44.683 41.5979C44.5263 41.2533 44.2959 40.9472 44.008 40.7013C43.3822 40.1556 42.1982 39.608 40.456 39.0587C38.3636 38.4542 36.7502 37.672 35.616 36.712C34.5031 35.752 33.936 34.4124 33.9147 32.6933C33.9147 31.0702 34.6187 29.7111 36.0267 28.616C37.3956 27.5209 39.1467 26.9733 41.28 26.9733C44.2524 26.9733 46.6373 27.6969 48.4347 29.144L46.3813 32.3413C45.642 31.7665 44.7938 31.3474 43.888 31.1093C43.074 30.8366 42.2236 30.6883 41.3653 30.6693C40.352 30.6693 39.5404 30.8551 38.9307 31.2267C38.3262 31.6 38.024 32.0889 38.024 32.6933C38.024 33.3582 38.3947 33.9253 39.136 34.3947C39.8827 34.8462 41.1538 35.3449 42.9493 35.8907C45.12 36.536 46.6649 37.3964 47.584 38.472C48.5031 39.5476 48.9627 40.9164 48.9627 42.5787C48.9627 44.28 48.3076 45.7467 46.9973 46.9787C45.7067 48.1911 43.8293 48.8267 41.3653 48.8853C38.1387 48.8853 35.44 47.9173 33.2693 45.9813L35.5573 42.8133ZM20.8107 44.5147C21.4364 44.9058 22.1893 45.1013 23.0693 45.1013C23.9884 45.1013 24.7511 44.8373 25.3573 44.3093C25.9618 43.7618 26.2649 42.8133 26.2667 41.464V27.3253H30.2267V42.2267C30.168 44.5342 29.5031 46.1964 28.232 47.2133C27.5365 47.8013 26.7278 48.2406 25.856 48.504C25.0475 48.7502 24.2078 48.8786 23.3627 48.8853C21.896 48.8853 20.5956 48.6311 19.4613 48.1227C18.2489 47.5769 17.232 46.6089 16.4107 45.2187L19.168 42.96C19.6747 43.6444 20.2222 44.1627 20.8107 44.5147Z" fill="currentColor" />
    </symbol>
    <symbol id="iconHTML5" viewBox="0 0 128 128">
        <path d="M64 96.9494L88.64 90.2507L91.9627 54.1014H48.1387L47.0507 42.08H93.056L94.2667 30.288H33.7333L37.1253 65.904H78.832L77.44 81.1894L64 84.7467L50.56 81.1894L49.7173 71.3547H37.6107L39.3653 90.256L64 96.9494ZM16 10.6667H112L103.344 106.667L64 117.333L24.656 106.667L16 10.6667Z" fill="currentColor" />
    </symbol>
    <symbol id="iconCSS3" viewBox="0 0 128 128">
        <path d="M20.8335 12.5L18.1252 26.4167H74.7502L72.9168 35.4167H16.3335L13.5835 49.2917H70.2085L67.0418 65.1667L44.2085 72.7083L24.4168 65.1667L25.7918 58.3333H11.8752L8.5835 75L41.2918 87.5L79.0002 75L84.0002 49.875L85.0002 44.8333L91.4168 12.5H20.8335Z" fill="currentColor" />
    </symbol>
    <symbol id="iconReactJS" viewBox="0 0 128 128">
        <path d="M38.5281 43.3067C37.0995 45.3366 35.5435 47.2738 33.8695 49.1067C38.3308 53.4347 42.4775 55.4613 44.7788 54.1307C47.0801 52.8027 47.3975 48.1973 45.8801 42.1733C43.6055 42.68 41.1361 43.0667 38.5281 43.3067ZM35.0348 43.536C33.0134 43.6182 30.9895 43.6182 28.9681 43.536C29.9708 44.848 30.9895 46.064 32.0001 47.1707C33.0153 46.0631 34.0268 44.8533 35.0348 43.536ZM48.4748 22.4827C55.5815 24.52 60.2241 27.9067 60.2241 31.9947C60.2241 36.0827 55.5841 39.4693 48.4775 41.5067C50.2641 48.68 49.6508 54.392 46.1121 56.4347C42.5735 58.48 37.3201 56.1547 32.0001 51.0187C26.6828 56.152 21.4295 58.48 17.8908 56.4347C14.3521 54.3893 13.7388 48.68 15.5255 41.5067C8.41881 39.4747 3.77881 36.088 3.77881 32C3.77881 27.912 8.41881 24.5253 15.5255 22.488C13.7388 15.3147 14.3521 9.60267 17.8908 7.55734C21.4295 5.51467 26.6828 7.84001 32.0001 12.976C37.3201 7.84001 42.5735 5.51467 46.1121 7.55734C49.6508 9.60267 50.2641 15.3147 48.4775 22.488M45.8828 21.8267C47.4028 15.8 47.0828 11.1973 44.7815 9.86667C42.4801 8.53867 38.3335 10.5653 33.8748 14.8933C35.5479 16.7262 37.1031 18.6635 38.5308 20.6933C41.1388 20.9333 43.6081 21.3173 45.8828 21.8267ZM18.1228 42.1733C16.6055 48.2 16.9228 52.8027 19.2268 54.1307C21.5281 55.4587 25.6748 53.4347 30.1335 49.1067C28.4603 47.2729 26.9051 45.3348 25.4775 43.304C23.0053 43.0821 20.5497 42.7036 18.1255 42.1707M28.9735 20.4587C30.9949 20.3765 33.0188 20.3765 35.0401 20.4587C34.0785 19.2057 33.0642 17.9939 32.0001 16.8267C30.9868 17.9378 29.9761 19.1502 28.9681 20.464M25.4748 20.696C26.9026 18.6661 28.4577 16.7289 30.1308 14.896C25.6721 10.5653 21.5255 8.53867 19.2268 9.86667C16.9255 11.1973 16.6055 15.8027 18.1255 21.8267C20.4001 21.32 22.8695 20.936 25.4775 20.6933M37.0508 40.7467C38.9497 37.9609 40.638 35.0372 42.1015 32C40.6388 28.9629 38.9515 26.0392 37.0535 23.2533C33.6919 23.002 30.3163 23.002 26.9548 23.2533C25.055 26.039 23.3659 28.9627 21.9015 32C23.365 35.0372 25.0533 37.9609 26.9521 40.7467C30.3137 40.998 33.6893 40.998 37.0508 40.7467ZM40.4775 40.3947C42.1201 40.1813 43.6757 39.912 45.1441 39.5867C44.6631 38.0825 44.1186 36.5994 43.5121 35.1413C42.573 36.9328 41.5616 38.6854 40.4801 40.3947M23.5281 23.6027C21.8855 23.8178 20.3299 24.088 18.8615 24.4133C19.3148 25.8462 19.8597 27.328 20.4961 28.8587C21.4352 27.0672 22.4467 25.3147 23.5281 23.6053M18.8615 39.5893C20.3299 39.9129 21.8855 40.1822 23.5281 40.3973C22.4467 38.688 21.4352 36.9355 20.4961 35.144C19.8888 36.6021 19.3434 38.0852 18.8615 39.5893ZM16.2535 38.936C16.9521 36.712 17.8535 34.3813 18.9468 32.0027C17.9033 29.7509 17.0037 27.4351 16.2535 25.0693C10.2775 26.7653 6.44814 29.3467 6.44814 32.0027C6.44814 34.6587 10.2775 37.2373 16.2535 38.936ZM45.1468 24.4133C43.6766 24.088 42.121 23.8178 40.4801 23.6027C41.5616 25.312 42.573 27.0646 43.5121 28.856C44.1468 27.3271 44.6917 25.8462 45.1468 24.4133ZM47.7521 25.0667C47.0588 27.2907 46.1521 29.6213 45.0588 32C46.1521 34.3787 47.0588 36.7093 47.7521 38.9333C53.7308 37.2347 57.5601 34.656 57.5601 32C57.5601 29.344 53.7308 26.7653 47.7521 25.0667ZM32.0001 37.0107C31.3284 37.0326 30.6591 36.9192 30.032 36.6773C29.4049 36.4353 28.8329 36.0698 28.35 35.6023C27.867 35.1349 27.483 34.5751 27.2207 33.9562C26.9585 33.3374 26.8233 32.6721 26.8233 32C26.8233 31.3279 26.9585 30.6626 27.2207 30.0438C27.483 29.4249 27.867 28.8652 28.35 28.3977C28.8329 27.9303 29.4049 27.5647 30.032 27.3227C30.6591 27.0808 31.3284 26.9674 32.0001 26.9893C33.3008 27.0318 34.5339 27.5783 35.4389 28.5133C36.344 29.4484 36.85 30.6987 36.85 32C36.85 33.3013 36.344 34.5516 35.4389 35.4867C34.5339 36.4217 33.3008 36.9682 32.0001 37.0107Z" fill="currentColor" />
    </symbol>
    <symbol id="iconNodeJS" viewBox="0 0 128 128">
        <path d="M29.7972 60.1466C30.4798 60.5173 31.2132 60.728 31.9998 60.728C32.7865 60.728 33.5732 60.5146 34.2025 60.2533L55.1305 48.0613C56.4932 47.2693 57.3332 45.792 57.3332 44.208V19.8773C57.3332 18.296 56.4932 16.816 55.1305 16.0266L34.2025 3.83464C33.525 3.4719 32.7684 3.2821 31.9998 3.2821C31.2313 3.2821 30.4747 3.4719 29.7972 3.83464L8.86918 16.0266C8.19754 16.42 7.64073 16.9826 7.25425 17.6582C6.86777 18.3338 6.66513 19.099 6.66651 19.8773V44.208C6.66651 45.792 7.50651 47.2693 8.86918 48.0613L14.3758 51.2293C17.0505 52.5466 17.9972 52.5466 19.2025 52.5466C23.1358 52.5466 25.3892 50.12 25.3892 45.9493V21.936C25.3871 21.7699 25.3206 21.6111 25.2037 21.4932C25.0868 21.3753 24.9286 21.3074 24.7625 21.304H22.0878C21.9213 21.3067 21.7625 21.3743 21.645 21.4923C21.5275 21.6103 21.4606 21.7695 21.4585 21.936V45.9493C21.4585 47.7973 19.5172 49.6453 16.4212 48.0613L10.7065 44.736C10.4932 44.6293 10.3918 44.368 10.3918 44.1546V19.8266C10.3918 19.6133 10.4958 19.3493 10.7065 19.2453L31.6345 7.10664C31.7892 6.99998 32.0532 6.99998 32.2612 7.10664L53.1918 19.2453C53.3998 19.352 53.5065 19.5626 53.5065 19.8266V44.1546C53.5065 44.4213 53.3998 44.6293 53.1918 44.736L32.2612 56.928C32.1038 57.0346 31.8425 57.0346 31.6318 56.928L26.2852 53.7066C26.1278 53.6 25.9172 53.5466 25.7598 53.6533C24.2932 54.4986 24.0292 54.6026 22.6132 55.0773C22.2985 55.184 21.7758 55.3946 22.8238 55.976L29.7972 60.1466ZM27.4372 36.1866C27.4372 39.776 29.3252 43.9973 38.5038 43.9973C45.1118 43.9973 48.9412 41.3573 48.9412 36.7146C48.9412 32.176 45.8985 30.96 39.4478 30.1173C32.9412 29.272 32.2612 28.7973 32.2612 27.2666C32.2612 26 32.8398 24.312 37.6638 24.312C41.9652 24.312 43.5892 25.2613 44.2212 28.1626C44.2511 28.2946 44.3238 28.413 44.428 28.4993C44.5322 28.5856 44.662 28.6351 44.7972 28.64H47.5758C47.7358 28.64 47.8905 28.5333 47.9972 28.4266C48.099 28.2893 48.1541 28.1229 48.1545 27.952C47.7358 22.8853 44.4318 20.5653 37.7172 20.5653C31.7385 20.5653 28.1705 23.0986 28.1705 27.3733C28.1705 31.9626 31.7385 33.2293 37.4532 33.8106C44.3252 34.4986 44.8505 35.5013 44.8505 36.872C44.8505 39.2453 42.9625 40.2506 38.5572 40.2506C32.9972 40.2506 31.7892 38.8773 31.3705 36.08C31.3705 35.7653 31.1092 35.552 30.7945 35.552H28.0665C27.8995 35.5548 27.7403 35.6227 27.6227 35.7413C27.5051 35.8598 27.4385 36.0197 27.4372 36.1866Z" fill="currentColor" />
    </symbol>
    <symbol id="iconGitLab" viewBox="0 0 100 100">
        <path d="M90.2623 41.6125L90.1456 41.3125L78.8164 11.7542C78.5874 11.171 78.1791 10.6757 77.6505 10.3394C77.1218 10.0032 76.5 9.84351 75.8748 9.88335C75.2487 9.91057 74.6476 10.1359 74.1578 10.5268C73.6681 10.9176 73.3151 11.4539 73.1498 12.0584L65.4998 35.5H34.5081L26.8456 12.0625C26.6822 11.4579 26.3311 10.9207 25.8429 10.5283C25.3547 10.136 24.7546 9.90867 24.1289 9.87919C23.5036 9.84517 22.8834 10.0077 22.3551 10.3439C21.8268 10.6802 21.417 11.1733 21.1831 11.7542L9.84144 41.3542L9.72477 41.6459C8.09856 45.9092 7.89935 50.585 9.15705 54.9712C10.4148 59.3573 13.0615 63.2171 16.6998 65.9709L16.7414 66L16.8414 66.0792L34.1206 79.0125L42.6623 85.4834L47.8581 89.4167C48.4669 89.879 49.2103 90.1293 49.9748 90.1293C50.7392 90.1293 51.4826 89.879 52.0914 89.4167L57.2873 85.4834L65.8289 79.0125L83.2123 66L83.2539 65.9667C86.907 63.2178 89.5664 59.355 90.8307 54.9616C92.095 50.5681 91.8955 45.8826 90.2623 41.6125Z" fill="currentColor"/>
    </symbol>
    <symbol id="iconTailwind" viewBox="0 0 128 128">
        <path d="M63.9999 25.92C47.0754 25.92 36.4977 34.3822 32.2665 51.3066C38.6132 42.8444 46.0176 39.6711 54.4799 41.7866C59.3065 42.992 62.7572 46.496 66.5759 50.3733C72.8052 56.6933 79.9999 64 95.7332 64C112.658 64 123.235 55.5378 127.467 38.6133C121.12 47.0755 113.715 50.2489 105.253 48.1333C100.421 46.928 96.9759 43.424 93.1465 39.5466C86.9332 33.2266 79.7332 25.92 63.9999 25.92ZM32.2665 64C15.3421 64 4.76431 72.4622 0.533203 89.3867C6.87987 80.9244 14.2843 77.7511 22.7465 79.8666C27.5732 81.072 31.0239 84.576 34.8479 88.4533C41.0665 94.7733 48.2665 102.08 63.9999 102.08C80.9243 102.08 91.5021 93.6178 95.7332 76.6933C89.3865 85.1555 81.9821 88.3289 73.5199 86.2133C68.6879 85.008 65.2425 81.504 61.4132 77.6266C55.1999 71.3066 47.9999 64 32.2665 64Z" fill="currentColor"/>
    </symbol>
</svg>
