<svg aria-hidden="true" xmlns="http://www.w3.org/2000/svg">
    <symbol id="iconGit" viewBox="0 0 24 24">
        <path d="M7.105 15.21A3.001 3.001 0 1 1 5 15.17V8.83a3.001 3.001 0 1 1 2 0V12c.836-.628 1.874-1 3-1h4a3 3 0 0 0 2.895-2.21a3.001 3.001 0 1 1 2.032.064A5 5 0 0 1 14 13h-4a3 3 0 0 0-2.895 2.21" fill="currentColor" />
    </symbol>
    <symbol id="iconBootstrap" viewBox="0 0 24 24">
        <path d="M5.423 3.038c-1.284 0-2.233 1.124-2.19 2.342c.04 1.171-.013 2.688-.395 3.924c-.383 1.24-1.03 2.026-2.088 2.127v1.138c1.058.101 1.705.887 2.088 2.127c.382 1.237.435 2.753.394 3.924c-.042 1.218.907 2.342 2.192 2.342h13.154c1.284 0 2.234-1.124 2.192-2.342c-.041-1.171.012-2.687.393-3.924c.384-1.24 1.03-2.026 2.087-2.127v-1.138c-1.058-.101-1.703-.887-2.087-2.127c-.381-1.236-.434-2.753-.393-3.924c.042-1.218-.908-2.342-2.192-2.342zm10.581 11.033c0 1.678-1.251 2.696-3.328 2.696H9.14a.38.38 0 0 1-.382-.381V7.614a.38.38 0 0 1 .382-.38h3.515c1.732 0 2.869.937 2.869 2.378c0 1.01-.765 1.916-1.739 2.074v.053c1.326.145 2.22 1.064 2.22 2.332M12.29 8.442h-2.016v2.848h1.698c1.313 0 2.036-.529 2.036-1.474c0-.885-.622-1.374-1.718-1.374m-2.016 3.977v3.139h2.09c1.367 0 2.09-.549 2.09-1.58c0-1.03-.743-1.559-2.178-1.559z" fill="currentColor" />
    </symbol>
    <symbol id="iconJavaScript" viewBox="0 0 24 24">
        <path d="M6 3a3 3 0 0 0-3 3v12a3 3 0 0 0 3 3h12a3 3 0 0 0 3-3V6a3 3 0 0 0-3-3zm7.334 13.055q1.08.87 2.156.858q.66 0 1.012-.242a.75.75 0 0 0 .341-.66a.97.97 0 0 0-.34-.748q-.352-.307-1.332-.616q-1.177-.34-1.815-.88q-.626-.54-.638-1.507q0-.913.792-1.529q.77-.616 1.97-.616q1.672 0 2.683.814l-.77 1.199a2.6 2.6 0 0 0-.935-.462a3.2 3.2 0 0 0-.946-.165q-.57 0-.913.209q-.34.21-.34.55q0 .374.417.638q.42.254 1.43.561q1.221.363 1.738.968t.517 1.54q0 .957-.737 1.65q-.726.682-2.112.715q-1.815 0-3.036-1.089zm-5.53.638q.352.22.847.22q.517 0 .858-.297q.34-.308.341-1.067v-5.302h1.485v5.588q-.033 1.298-.748 1.87a2.5 2.5 0 0 1-.891.484a3.3 3.3 0 0 1-.935.143q-.825 0-1.463-.286q-.682-.307-1.144-1.089l1.034-.847q.285.385.616.583" fill="currentColor" />
    </symbol>
    <symbol id="iconHTML5" viewBox="0 0 24 24">
        <path d="m12 18.178l4.62-1.256l.623-6.778H9.026L8.822 7.89h8.626l.227-2.211H6.325l.636 6.678h7.82l-.261 2.866l-2.52.667l-2.52-.667l-.158-1.844h-2.27l.329 3.544zM3 2h18l-1.623 18L12 22l-7.377-2z" fill="currentColor" />
    </symbol>
    <symbol id="iconGitHub" viewBox="0 0 24 24">
        <path d="M12.001 2c-5.525 0-10 4.475-10 10a9.99 9.99 0 0 0 6.837 9.488c.5.087.688-.213.688-.476c0-.237-.013-1.024-.013-1.862c-2.512.463-3.162-.612-3.362-1.175c-.113-.288-.6-1.175-1.025-1.413c-.35-.187-.85-.65-.013-.662c.788-.013 1.35.725 1.538 1.025c.9 1.512 2.337 1.087 2.912.825c.088-.65.35-1.087.638-1.337c-2.225-.25-4.55-1.113-4.55-4.938c0-1.088.387-1.987 1.025-2.687c-.1-.25-.45-1.275.1-2.65c0 0 .837-.263 2.75 1.024a9.3 9.3 0 0 1 2.5-.337c.85 0 1.7.112 2.5.337c1.913-1.3 2.75-1.024 2.75-1.024c.55 1.375.2 2.4.1 2.65c.637.7 1.025 1.587 1.025 2.687c0 3.838-2.337 4.688-4.562 4.938c.362.312.675.912.675 1.85c0 1.337-.013 2.412-.013 2.75c0 .262.188.574.688.474A10.02 10.02 0 0 0 22 12c0-5.525-4.475-10-10-10" fill="currentColor" />
    </symbol>
    <symbol id="iconCSS3" viewBox="0 0 24 24">
        <path d="m5 3l-.65 3.34h13.59L17.5 8.5H3.92l-.66 3.33h13.59l-.76 3.81l-5.48 1.81l-4.75-1.81l.33-1.64H2.85l-.79 4l7.85 3l9.05-3l1.2-6.03l.24-1.21L21.94 3z" fill="currentColor" />
    </symbol>
    <symbol id="iconReactJS" viewBox="0 0 24 24">
        <path d="M12.001 13.5a1.5 1.5 0 1 1 0-3a1.5 1.5 0 0 1 0 3m-.528 2.994q.262.316.528.609q.266-.292.528-.609a25 25 0 0 1-1.056 0m-1.995-.125a21 21 0 0 1-2.285-.367q-.113.525-.17 1.015c-.19 1.583.075 2.545.478 2.777s1.368-.019 2.645-.974q.395-.296.794-.655a21 21 0 0 1-1.462-1.796m7.331-.367a21 21 0 0 1-2.285.367a21 21 0 0 1-1.462 1.796q.4.36.794.655c1.277.955 2.242 1.207 2.645.974c.403-.232.667-1.194.479-2.777a11 11 0 0 0-.17-1.015m1.45-.388c.577 2.639.274 4.74-1.008 5.48s-3.253-.048-5.25-1.867c-1.997 1.819-3.968 2.606-5.25 1.866s-1.585-2.84-1.009-5.48C3.168 14.794 1.501 13.48 1.501 12s1.667-2.793 4.241-3.613c-.576-2.64-.273-4.74 1.009-5.48s3.253.047 5.25 1.866c1.997-1.819 3.968-2.606 5.25-1.866s1.585 2.84 1.009 5.48c2.573.82 4.24 2.133 4.24 3.613s-1.668 2.794-4.241 3.614m-7.32-9.779q-.398-.359-.793-.655C8.869 4.225 7.904 3.973 7.5 4.206c-.403.232-.667 1.194-.479 2.778q.06.49.17 1.015a21 21 0 0 1 2.286-.368q.714-.981 1.462-1.796m3.585 1.796a21 21 0 0 1 2.285.368q.113-.526.17-1.015c.19-1.584-.075-2.546-.478-2.778s-1.368.019-2.645.974q-.395.296-.794.655q.748.815 1.462 1.796m-1.995-.125q-.262-.316-.528-.609q-.265.293-.528.609a25 25 0 0 1 1.056 0m-4.156 7.198a25 25 0 0 1-.528-.914q-.143.385-.263.762q.386.083.79.152m1.932.234a23 23 0 0 0 3.392 0A23 23 0 0 0 15.393 12a23 23 0 0 0-1.696-2.938a23 23 0 0 0-3.392 0A23 23 0 0 0 8.609 12a23 23 0 0 0 1.696 2.938m5.852-4.728q.143-.385.263-.761a18 18 0 0 0-.79-.153a25 25 0 0 1 .527.914M6.131 9.837q-.51.165-.964.36c-1.465.628-2.166 1.338-2.166 1.803s.7 1.175 2.166 1.803q.454.195.964.36c.222-.7.497-1.426.825-2.163a21 21 0 0 1-.825-2.163m1.45-.388q.121.375.264.76a25 25 0 0 1 .528-.913q-.405.069-.791.153m10.29 4.714q.51-.165.964-.36C20.3 13.175 21 12.465 21 12s-.7-1.175-2.166-1.803q-.454-.195-.965-.36c-.22.7-.496 1.426-.824 2.163c.328.737.603 1.463.825 2.163m-1.45.389q-.122-.377-.264-.762a25 25 0 0 1-.528.914q.405-.07.791-.152" fill="currentColor" />
    </symbol>
    <symbol id="iconNodeJS" viewBox="0 0 24 24">
        <path d="M12.887 1.362a1.75 1.75 0 0 0-1.774 0L3.363 5.92A1.75 1.75 0 0 0 2.5 7.429v9.142c0 .62.328 1.194.863 1.508l2.623 1.543C7.319 20.408 9 19.446 9 17.9V7.747H7v10.152l-2.5-1.471V7.572L12 3.16l7.5 4.412v8.856L12 20.84l-1.768-1.04l-1.014 1.723l1.895 1.115a1.75 1.75 0 0 0 1.774 0l7.75-4.559a1.75 1.75 0 0 0 .863-1.508V7.429a1.75 1.75 0 0 0-.863-1.508zM14 7.5c-1.363 0-2.329.351-2.95.97a2.5 2.5 0 0 0-.737 1.761c0 .555.157 1.058.482 1.474c.313.4.725.649 1.12.81c.72.297 1.62.394 2.344.471l.087.01c.831.09 1.454.167 1.88.345c.193.08.272.154.305.197c.021.028.062.09.062.26c0 .264-.09.434-.373.595c-.347.197-.96.347-1.883.347c-.915 0-1.553-.17-1.918-.422c-.283-.196-.492-.497-.437-1.15l-1.993-.167c-.108 1.289.359 2.316 1.292 2.962c.851.59 1.97.777 3.056.777c1.077 0 2.092-.165 2.873-.61c.846-.48 1.383-1.282 1.383-2.332c0-.557-.155-1.061-.477-1.48c-.31-.404-.722-.656-1.118-.822c-.728-.305-1.64-.403-2.368-.481l-.07-.008c-.833-.09-1.456-.165-1.885-.341c-.194-.08-.273-.152-.303-.192c-.02-.024-.059-.08-.059-.243c0-.077.023-.219.15-.345c.122-.122.499-.386 1.537-.386c.99 0 1.567.105 1.897.3c.215.128.448.363.48 1.133l1.998-.08c-.05-1.246-.506-2.208-1.458-2.772C16.08 7.583 15.01 7.5 14 7.5" fill="currentColor" />
    </symbol>
    <symbol id="iconTailwind" viewBox="0 0 24 24">
        <path d="M12 4.86q-4.76 0-5.95 4.76q1.785-2.38 4.165-1.785c.905.226 1.552.883 2.268 1.61C13.651 10.63 15 12 17.95 12q4.76 0 5.95-4.76q-1.785 2.38-4.165 1.785c-.906-.226-1.552-.883-2.27-1.61C16.3 6.23 14.95 4.86 12 4.86M6.05 12Q1.29 12 .1 16.76q1.785-2.38 4.165-1.785c.905.226 1.552.883 2.269 1.61C7.7 17.77 9.05 19.14 12 19.14q4.76 0 5.95-4.76q-1.785 2.38-4.165 1.785c-.906-.226-1.552-.883-2.27-1.61C10.35 13.37 9 12 6.05 12" fill="currentColor" />
    </symbol>
    <symbol id="iconFigma" viewBox="0 0 24 24">
        <path d="M5 6a4 4 0 0 1 4-4h6a4 4 0 0 1 2.646 7A4 4 0 0 1 13 15.465V18a4 4 0 1 1-6.646-3A4 4 0 0 1 5 12a4 4 0 0 1 1.354-3A4 4 0 0 1 5 6m6 4H9a2 2 0 1 0 0 4h2zm2 2a2 2 0 1 0 4 0a2 2 0 0 0-4 0m2-4a2 2 0 1 0 0-4h-2v4zM9 4a2 2 0 1 0 0 4h2V4zm2 12H9a2 2 0 1 0 2 2z" fill="currentColor" />
    </symbol>
    <symbol id="iconAdobeXD" viewBox="0 0 24 24">
        <path fill-rule="evenodd" d="M5 1a4 4 0 0 0-4 4v14a4 4 0 0 0 4 4h14a4 4 0 0 0 4-4V5a4 4 0 0 0-4-4zm12.57 5.5h2v9.79c-.565.196-1.954.59-2.988.59c-1.293 0-3.582-.665-3.582-3.766c0-2.687 2.237-3.7 4.57-3.7zm0 4.624v4c-.83 0-2.5-.213-2.5-2s1.67-2 2.5-2M6.5 7.88h-2l2.5 4.5l-2.5 4.5h2l2-3.5l2 3.5h2l-2.5-4.5l2.5-4.5h-2l-2 3.5z" clip-rule="evenodd" fill="currentColor" />
    </symbol>
    <symbol id="iconMySQL" viewBox="0 0 512 349">
        <path d="m152.31 230.297l15.56 50.487c3.496 11.463 4.954 19.465 4.37 24.026q12.765-34.188 17.839-74.513h18.71q-12.069 65.65-31.827 95.41c-10.262 15.289-21.504 22.933-33.746 22.933c-3.264 0-7.288-.986-12.063-2.944v-10.55c2.333.342 5.07.525 8.218.525q8.565-.002 13.816-4.742c4.193-3.849 6.292-8.175 6.292-12.97c0-3.274-1.637-9.993-4.896-20.157l-21.68-67.505zM33.223 199.266l28.5 86.956h.176l28.675-86.956h23.428c5.13 43.124 8.16 82.581 9.09 118.346H103.34q-1.044-50.148-5.768-94.32H97.4l-30.078 94.32H52.28l-29.896-94.32h-.176q-3.325 42.422-4.196 94.32H0c1.164-42.08 4.077-81.525 8.739-118.346z" fill="currentColor" /><path d="M352.498 197.51c30.657 0 45.986 19.586 45.986 58.739c0 21.276-4.61 37.347-13.821 48.204c-1.66 1.984-3.495 3.698-5.427 5.286l21.695 10.727l-.021-.001l-7.703 13.302l-28.253-16.485q-7.026 2.08-15.451 2.08c-15.053 0-26.297-4.387-33.731-13.15c-8.16-9.694-12.238-24.955-12.238-45.757c0-21.156 4.602-37.166 13.816-48.037c8.392-9.944 20.11-14.909 35.148-14.909m-93.88.172c10.957 0 20.92 2.932 29.894 8.775l-4.558 10.157c-7.679-3.264-15.25-4.903-22.716-4.903c-6.058 0-10.726 1.458-13.98 4.392c-3.272 2.908-5.296 6.65-5.296 11.212c0 7.01 4.994 13.089 14.215 18.225a816 816 0 0 1 9.031 5.011l.688.387l.345.194l.689.387l.344.194l.688.388c6.98 3.935 13.548 7.691 13.548 7.691c9.22 6.545 13.816 13.523 13.816 25.016c0 10.037-3.678 18.276-11.01 24.723c-7.337 6.418-17.194 9.636-29.538 9.636c-11.545 0-22.734-3.704-33.572-11.05l5.07-10.166c9.327 4.675 17.767 7.01 25.346 7.01c7.108 0 12.672-1.587 16.697-4.721c4.017-3.157 6.424-7.56 6.424-13.143c0-7.027-4.888-13.034-13.855-18.073a898 898 0 0 1-8.395-4.697l-.687-.389c-1.262-.713-2.533-1.435-3.778-2.142l-.675-.384c-6.055-3.444-11.29-6.453-11.29-6.453c-8.964-6.557-13.459-13.592-13.459-25.184c0-9.587 3.352-17.336 10.046-23.231q10.066-8.862 25.968-8.862m175.895 1.584v103.788h37.238v14.558h-56.124V199.266zm57.93 103.833v2.46h-4.094v12.04h-3.13v-12.04h-4.253v-2.46zm7.56 0l3.931 9.884l3.611-9.884h4.437v14.5h-2.95v-11.035l-4.11 11.035h-2.127l-4.117-11.035h-.158v11.035h-2.791v-14.5zM350.57 212.064c-18.066 0-27.104 14.91-27.104 44.71c0 17.07 2.395 29.448 7.176 37.163c4.428 7.14 11.363 10.703 20.806 10.703c18.066 0 27.103-15.026 27.103-45.064c0-16.831-2.395-29.103-7.17-36.822c-4.433-7.124-11.365-10.69-20.81-10.69" fill="currentColor" /><path d="M303.218 7.333c5.993-14.726 26.948-3.574 35.08 1.57c1.993 1.287 4.279 4.006 6.564 5.011c3.565.14 7.127.419 10.698.568c6.698 1.574 12.972 2.86 18.25 5.866c24.528 14.445 40.495 29.165 55.19 53.479c3.14 5.15 4.709 10.723 7.274 16.296c3.56 8.307 7.56 17.027 11.692 24.882c1.85 3.724 3.281 7.865 5.85 11.01c1.003 1.438 3.852 1.862 5.555 2.721c4.708 2.437 10.412 4.287 14.84 7.147c8.269 5.156 16.264 11.3 23.532 17.59c2.709 2.428 4.555 5.865 7.136 8.433v1.296c-2.291.703-4.574 1.423-6.859 2c-4.991 1.282-9.412.992-14.254 2.275c-2.992.868-6.707 2.013-9.845 2.304l.29.292c1.846 5.275 11.834 9.565 16.402 12.72c5.548 4.004 10.689 8.86 14.827 14.437c1.429 1.423 2.858 2.718 4.28 4.137c.994 1.438 1.274 3.298 2.28 4.58v.434c-1.114-.393-1.915-1.143-2.674-1.927l-.453-.473c-.453-.47-.91-.932-1.431-1.313c-3.148-2.15-6.274-4.722-9.422-6.721c-5.412-3.434-11.689-5.427-17.246-8.874c-3.142-2.001-6.137-4.28-9.132-6.57c-2.715-2.007-5.705-5.861-7.411-8.721c-1.005-1.58-1.143-3.437-2.291-4.58c.205-1.909 1.954-2.476 3.719-2.942l.406-.107c.609-.158 1.205-.316 1.725-.525c7.414-3.148 16.253-4.29 27.667-4.004c-.43-2.866-7.562-6.437-9.839-8.153c-4.57-3.294-9.409-6.731-14.257-9.729c-2.569-1.57-6.996-2.716-9.842-3.999c-3.851-1.574-12.41-3.147-14.544-6.145c-3.625-4.726-6.229-10.363-8.757-16.057l-.688-1.554l-.69-1.553c-2.988-6.857-6.7-14.006-9.695-21.027c-1.566-3.425-2.285-6.431-4-9.716c-10.407-20.158-25.81-37.035-44.485-48.904c-6.137-3.862-12.98-7.436-20.534-9.865c-4.281-1.293-9.419-.578-13.98-1.57h-3.002c-2.562-.722-4.701-3.438-6.7-4.87c-4.415-2.998-8.837-5.011-14.117-7.15c-1.85-.858-7.133-2.856-8.977-1.283c-1.142.287-1.721.718-2.002 1.864c-1.136 1.71-.137 4.286.57 5.863c2.142 4.57 5.134 7.286 7.85 11.148c2.416 3.425 5.417 7.287 7.13 11.011c3.696 8.005 5.417 16.874 8.842 24.878c1.27 3.01 3.279 6.435 5.128 9.15c1.567 2.155 4.416 3.713 5.278 6.441c1.718 2.86-2.572 12.297-3.565 15.294c-3.715 11.727-2.995 28.028 1.283 38.193l.228.536l.228.543c1.562 3.723 3.234 7.732 7.387 8.773c.286-.284 0-.135.567-.284c1.005-7.868 1.288-15.445 4-21.601c1.567-3.849 4.696-6.57 6.841-9.712c1.43.856 1.43 3.437 2.282 5.145c1.856 4.43 3.849 9.287 6.137 13.73c4.696 9.15 9.98 18.021 15.967 26.025c2.005 2.859 4.85 6.006 7.416 8.581c1.143.997 2.423 1.573 3.282 2.856h.28v.432c-4.278-1.577-6.99-6.003-10.402-8.587c-6.424-4.857-14.117-12.151-18.545-19.15c-1.852-4.018-3.854-7.869-5.85-11.867v-.289c-.853 1.142-.567 2.276-.994 4.004c-1.852 7.145-.426 15.296-6.843 17.866c-7.274 3.01-12.7-4.857-14.977-8.432c-7.276-11.866-9.269-31.884-4.138-48.043c1.14-3.577 1.295-7.867 3.285-10.723c-.43-2.582-2.42-3.288-3.571-4.87c-1.996-2.704-3.705-5.854-5.268-8.857c-3.002-5.866-5.138-12.875-7.417-19.166c-1.002-2.569-1.289-5.148-2.288-7.58c-1.704-3.712-4.845-7.436-7.268-10.72c-3.281-4.72-12.837-13.868-8.985-23.168m46.772 28.015c.381.382.841.716 1.317 1.045l.574.394c.765.53 1.506 1.088 1.96 1.848c.72 1.006.854 1.999 1.716 3.007c0 3.437-.996 5.722-3.007 7.146c0 0-.137.15-.278.29c-1.14-2.291-2.139-4.57-3.287-6.859c-1.414-1.998-3.413-3.583-4.565-5.866h-.277v-.287c1.721-.425 3.428-.718 5.847-.718" fill="currentColor" />
    </symbol>



    <symbol id="iconLaravel" viewBox="0 0 512 512">
        <path d="M107.2 0c2.5 0 4.7.8 6.7 2l94.3 54.1c2.7 1.5 4.5 3.5 5.4 5.9c.9 2.2.9 4.3.9 5.6V261l69.2-39.7V121c0-2.6.6-5 2.2-7.2c1.5-2.1 3.5-3.6 5.7-4.8l94-54c1.6-.9 3.4-1.6 5.5-1.6s4 .7 5.6 1.6l95.8 55.1c2.3 1.3 3.9 3 4.9 5.3c.9 2.1.9 4.2.9 5.8v107.2c0 2-.2 4.3-1.4 6.4c-1.2 2.2-3 3.7-5.1 4.9l-.1.1l-88 50.5v100c0 2.3-.3 4.8-1.6 7s-3.3 3.7-5.3 4.9h-.1L208.7 510c-2.2 1.2-4.5 2-7.1 2s-4.9-.9-7.1-2l-.1-.1L7.1 402l-.5-.3c-1.1-.7-2.6-1.7-3.8-2.9c-1.9-1.9-2.8-4.2-2.8-7.2V65.9c0-4.8 3-7.9 5.5-9.3l95-54.6c2-1.2 4.3-2 6.8-2zM38.1 67.1l69 39.9l69.2-39.9l-69.2-39.7zm353 93.2l69-39.7l-69-39.7l-69.1 39.7zM189.2 89L120 128.8v186.4l69.2-39.9V88.9zm-94.7 39.9L25.2 89.1v294.2l164 94.2v-79.4l-87.3-49.3l-.2-.1c-1.3-.8-3.2-1.9-4.6-3.7c-1.7-2.1-2.5-4.7-2.5-7.7V128.8zm214.7 92.4l69.3 39.6v-78.5l-69.3-39.9zm94.5 39.6l69.3-39.7v-78.8l-69.3 39.9v78.5zM201.6 376.1l163.8-93.2l-69-39.9L133 337.1l68.6 38.9zm12.9 101.5l164-94.2v-78.8l-164 93.6z" fill="currentColor" />
    </symbol>
    <symbol id="iconArrowLeft" viewBox="0 0 8 16">
        <path d="M0 8L8 16V0L0 8Z" fill="currentColor" />
    </symbol>
    <symbol id="iconArrowRight" viewBox="0 0 8 16">
        <path d="M8 8L0 16V0L8 8Z" fill="currentColor" />
    </symbol>
    <symbol id="iconPHP" viewBox="0 0 24 24">
        <path d="M4.931 9.46H3.594l-.73 3.751h1.187q1.181 0 1.76-.445q.577-.445.779-1.486q.194-.999-.176-1.41t-1.483-.41m2.45 4.153c-.369.354-.814.62-1.298.78q-.715.232-1.82.233H2.588l-.463 2.382H.174l1.742-8.962H5.67q1.694 0 2.471.89q.778.888.468 2.482a4 4 0 0 1-.432 1.2a4 4 0 0 1-.795.995m5.701 1.013l.77-3.965q.132-.677-.097-.922q-.227-.247-.973-.247h-1.547l-.997 5.136H8.3l1.742-8.964h1.937l-.463 2.383h1.725q1.63 0 2.247.568t.373 1.84l-.81 4.171zm10.763-3.208c-.078.42-.224.825-.432 1.2a4 4 0 0 1-.795.995c-.37.353-.814.62-1.299.78q-.715.232-1.822.233h-1.671l-.464 2.383H15.41l1.743-8.962h3.752q1.694 0 2.471.89q.778.886.469 2.48M20.169 9.46h-1.336l-.731 3.751h1.187q1.183 0 1.76-.445t.78-1.486q.194-.999-.177-1.41t-1.483-.41" fill="currentColor" />
    </symbol>
    

    <symbol id="iconHappyFace" viewBox="0 0 100 100">
        <path d="M50.0002 91.6667C26.9877 91.6667 8.3335 73.0125 8.3335 50C8.3335 26.9875 26.9877 8.33337 50.0002 8.33337C73.0127 8.33337 91.6668 26.9875 91.6668 50C91.6668 73.0125 73.0127 91.6667 50.0002 91.6667ZM29.1668 54.1667C29.1668 59.6921 31.3618 64.9911 35.2688 68.8981C39.1758 72.8051 44.4748 75 50.0002 75C55.5255 75 60.8246 72.8051 64.7316 68.8981C68.6386 64.9911 70.8335 59.6921 70.8335 54.1667H62.5002C62.5002 57.4819 61.1832 60.6613 58.839 63.0055C56.4948 65.3498 53.3154 66.6667 50.0002 66.6667C46.685 66.6667 43.5055 65.3498 41.1613 63.0055C38.8171 60.6613 37.5002 57.4819 37.5002 54.1667H29.1668ZM33.3335 45.8334C34.9911 45.8334 36.5808 45.1749 37.7529 44.0028C38.925 42.8307 39.5835 41.241 39.5835 39.5834C39.5835 37.9258 38.925 36.3361 37.7529 35.164C36.5808 33.9919 34.9911 33.3334 33.3335 33.3334C31.6759 33.3334 30.0862 33.9919 28.9141 35.164C27.742 36.3361 27.0835 37.9258 27.0835 39.5834C27.0835 41.241 27.742 42.8307 28.9141 44.0028C30.0862 45.1749 31.6759 45.8334 33.3335 45.8334ZM66.6668 45.8334C68.3244 45.8334 69.9141 45.1749 71.0863 44.0028C72.2584 42.8307 72.9168 41.241 72.9168 39.5834C72.9168 37.9258 72.2584 36.3361 71.0863 35.164C69.9141 33.9919 68.3244 33.3334 66.6668 33.3334C65.0092 33.3334 63.4195 33.9919 62.2474 35.164C61.0753 36.3361 60.4168 37.9258 60.4168 39.5834C60.4168 41.241 61.0753 42.8307 62.2474 44.0028C63.4195 45.1749 65.0092 45.8334 66.6668 45.8334Z" fill="currentColor" />
    </symbol>
    <symbol id="iconWorkTeam" viewBox="0 0 128 128">
        <path d="M63.9998 53.3333C69.6578 53.3333 75.084 51.0857 79.0848 47.0849C83.0856 43.0841 85.3332 37.6579 85.3332 32C85.3332 26.342 83.0856 20.9158 79.0848 16.915C75.084 12.9142 69.6578 10.6666 63.9998 10.6666C58.3419 10.6666 52.9157 12.9142 48.9149 16.915C44.9141 20.9158 42.6665 26.342 42.6665 32C42.6665 37.6579 44.9141 43.0841 48.9149 47.0849C52.9157 51.0857 58.3419 53.3333 63.9998 53.3333ZM29.3332 69.3333C32.8694 69.3333 36.2608 67.9285 38.7613 65.4281C41.2617 62.9276 42.6665 59.5362 42.6665 56C42.6665 52.4637 41.2617 49.0724 38.7613 46.5719C36.2608 44.0714 32.8694 42.6666 29.3332 42.6666C25.797 42.6666 22.4056 44.0714 19.9051 46.5719C17.4046 49.0724 15.9998 52.4637 15.9998 56C15.9998 59.5362 17.4046 62.9276 19.9051 65.4281C22.4056 67.9285 25.797 69.3333 29.3332 69.3333ZM112 56C112 59.5362 110.595 62.9276 108.095 65.4281C105.594 67.9285 102.203 69.3333 98.6665 69.3333C95.1303 69.3333 91.7389 67.9285 89.2384 65.4281C86.7379 62.9276 85.3332 59.5362 85.3332 56C85.3332 52.4637 86.7379 49.0724 89.2384 46.5719C91.7389 44.0714 95.1303 42.6666 98.6665 42.6666C102.203 42.6666 105.594 44.0714 108.095 46.5719C110.595 49.0724 112 52.4637 112 56ZM63.9998 58.6666C71.0723 58.6666 77.855 61.4761 82.856 66.4771C87.857 71.4781 90.6665 78.2609 90.6665 85.3333V117.333H37.3332V85.3333C37.3332 78.2609 40.1427 71.4781 45.1437 66.4771C50.1446 61.4761 56.9274 58.6666 63.9998 58.6666ZM26.6665 85.3333C26.6665 81.6373 27.1998 78.0693 28.2025 74.6986L27.2958 74.7733C22.7245 75.2752 18.4994 77.4469 15.4306 80.872C12.3618 84.2971 10.6653 88.7345 10.6665 93.3333V117.333H26.6665V85.3333ZM117.333 117.333V93.3333C117.334 88.5779 115.519 84.0016 112.26 80.5385C109.002 77.0754 104.544 74.9867 99.7972 74.6986C100.795 78.0693 101.333 81.6373 101.333 85.3333V117.333H117.333Z" fill="currentColor" />
    </symbol>
    <symbol id="iconBack" viewBox="0 0 24 24">
        <path  d="M8 7v4L2 6l6-5v4h5a8 8 0 1 1 0 16H4v-2h9a6 6 0 0 0 0-12z" fill="currentColor" />
    </symbol>
</svg>
